<svg width="16" height="16" viewBox="0 0 16 16" fill="none" xmlns="http://www.w3.org/2000/svg">
<g clip-path="url(#clip0_5_60)">
<path d="M2.66699 5.33317C2.66699 4.62593 2.94794 3.94765 3.44804 3.44755C3.94814 2.94746 4.62641 2.6665 5.33366 2.6665H10.667C11.3742 2.6665 12.0525 2.94746 12.5526 3.44755C13.0527 3.94765 13.3337 4.62593 13.3337 5.33317V10.6665C13.3337 11.3737 13.0527 12.052 12.5526 12.5521C12.0525 13.0522 11.3742 13.3332 10.667 13.3332H5.33366C4.62641 13.3332 3.94814 13.0522 3.44804 12.5521C2.94794 12.052 2.66699 11.3737 2.66699 10.6665V5.33317Z" stroke="#FAFAFA" stroke-width="1.2" stroke-linecap="round" stroke-linejoin="round"/>
<path d="M6 8C6 8.53043 6.21071 9.03914 6.58579 9.41421C6.96086 9.78929 7.46957 10 8 10C8.53043 10 9.03914 9.78929 9.41421 9.41421C9.78929 9.03914 10 8.53043 10 8C10 7.46957 9.78929 6.96086 9.41421 6.58579C9.03914 6.21071 8.53043 6 8 6C7.46957 6 6.96086 6.21071 6.58579 6.58579C6.21071 6.96086 6 7.46957 6 8Z" stroke="#FAFAFA" stroke-width="1.2" stroke-linecap="round" stroke-linejoin="round"/>
<path d="M11 5V5.01" stroke="#FAFAFA" stroke-width="1.2" stroke-linecap="round" stroke-linejoin="round"/>
</g>
<defs>
<clipPath id="clip0_5_60">
<rect width="16" height="16" fill="white"/>
</clipPath>
</defs>
</svg>
