<svg width="14" height="14" viewBox="0 0 14 14" fill="none" xmlns="http://www.w3.org/2000/svg">
<path d="M12.6003 12.5999V8.49789C12.6003 6.48189 12.1663 4.94189 9.8143 4.94189C8.6803 4.94189 7.9243 5.55789 7.6163 6.14589H7.5883V5.12389H5.3623V12.5999H7.6863V8.88989C7.6863 7.90989 7.8683 6.97189 9.0723 6.97189C10.2623 6.97189 10.2763 8.07789 10.2763 8.94589V12.5859H12.6003V12.5999Z" fill="#FAFAFA"/>
<path d="M1.58252 5.12402H3.90652V12.6H1.58252V5.12402Z" fill="#FAFAFA"/>
<path d="M2.74439 1.3999C2.00239 1.3999 1.40039 2.0019 1.40039 2.7439C1.40039 3.4859 2.00239 4.1019 2.74439 4.1019C3.48639 4.1019 4.08839 3.4859 4.08839 2.7439C4.08839 2.0019 3.48639 1.3999 2.74439 1.3999Z" fill="#FAFAFA"/>
</svg>
