<svg width="88" height="16" viewBox="0 0 88 16" fill="none" xmlns="http://www.w3.org/2000/svg">
<path d="M12.6003 13.5999V9.49789C12.6003 7.48189 12.1663 5.94189 9.8143 5.94189C8.6803 5.94189 7.9243 6.55789 7.6163 7.14589H7.5883V6.12389H5.3623V13.5999H7.6863V9.88989C7.6863 8.90989 7.8683 7.97189 9.0723 7.97189C10.2623 7.97189 10.2763 9.07789 10.2763 9.94589V13.5859H12.6003V13.5999Z" fill="#FAFAFA"/>
<path d="M1.58252 6.12402H3.90652V13.6H1.58252V6.12402Z" fill="#FAFAFA"/>
<path d="M2.74439 2.3999C2.00239 2.3999 1.40039 3.0019 1.40039 3.7439C1.40039 4.4859 2.00239 5.1019 2.74439 5.1019C3.48639 5.1019 4.08839 4.4859 4.08839 3.7439C4.08839 3.0019 3.48639 2.3999 2.74439 2.3999Z" fill="#FAFAFA"/>
<g clip-path="url(#clip0_5_52)">
<path d="M24 8C24 4.6916 26.6916 2 30 2C31.3362 2 32.6009 2.42989 33.6574 3.2432L32.2631 5.0544C31.6098 4.55154 30.8273 4.28571 30 4.28571C27.9519 4.28571 26.2857 5.95194 26.2857 8C26.2857 10.0481 27.9519 11.7143 30 11.7143C31.6495 11.7143 33.0513 10.6335 33.5344 9.14286H30V6.85714H36V8C36 11.3084 33.3084 14 30 14C26.6916 14 24 11.3084 24 8Z" fill="#FAFAFA"/>
</g>
<g clip-path="url(#clip1_5_52)">
<path d="M48.667 5.33317C48.667 4.62593 48.9479 3.94765 49.448 3.44755C49.9481 2.94746 50.6264 2.6665 51.3337 2.6665H56.667C57.3742 2.6665 58.0525 2.94746 58.5526 3.44755C59.0527 3.94765 59.3337 4.62593 59.3337 5.33317V10.6665C59.3337 11.3737 59.0527 12.052 58.5526 12.5521C58.0525 13.0522 57.3742 13.3332 56.667 13.3332H51.3337C50.6264 13.3332 49.9481 13.0522 49.448 12.5521C48.9479 12.052 48.667 11.3737 48.667 10.6665V5.33317Z" stroke="#FAFAFA" stroke-width="1.2" stroke-linecap="round" stroke-linejoin="round"/>
<path d="M52 8C52 8.53043 52.2107 9.03914 52.5858 9.41421C52.9609 9.78929 53.4696 10 54 10C54.5304 10 55.0391 9.78929 55.4142 9.41421C55.7893 9.03914 56 8.53043 56 8C56 7.46957 55.7893 6.96086 55.4142 6.58579C55.0391 6.21071 54.5304 6 54 6C53.4696 6 52.9609 6.21071 52.5858 6.58579C52.2107 6.96086 52 7.46957 52 8Z" stroke="#FAFAFA" stroke-width="1.2" stroke-linecap="round" stroke-linejoin="round"/>
<path d="M57 5V5.01" stroke="#FAFAFA" stroke-width="1.2" stroke-linecap="round" stroke-linejoin="round"/>
</g>
<g clip-path="url(#clip2_5_52)">
<path d="M76.667 6.66667V9.33333H78.667V14H81.3337V9.33333H83.3337L84.0003 6.66667H81.3337V5.33333C81.3337 5.15652 81.4039 4.98695 81.5289 4.86193C81.6539 4.7369 81.8235 4.66667 82.0003 4.66667H84.0003V2H82.0003C81.1163 2 80.2684 2.35119 79.6433 2.97631C79.0182 3.60143 78.667 4.44928 78.667 5.33333V6.66667H76.667Z" fill="#FAFAFA"/>
</g>
<defs>
<clipPath id="clip0_5_52">
<rect width="12" height="12" fill="white" transform="translate(24 2)"/>
</clipPath>
<clipPath id="clip1_5_52">
<rect width="16" height="16" fill="white" transform="translate(46)"/>
</clipPath>
<clipPath id="clip2_5_52">
<rect width="16" height="16" fill="white" transform="translate(72)"/>
</clipPath>
</defs>
</svg>
