<svg width="31" height="31" viewBox="0 0 31 31" fill="none" xmlns="http://www.w3.org/2000/svg">
<path d="M22.792 2.87088C24.9915 4.14088 26.8213 5.96331 28.1001 8.15778C29.3788 10.3522 30.0623 12.8426 30.0828 15.3824C30.1033 17.9222 29.4602 20.4233 28.217 22.6381C26.9739 24.853 25.1738 26.7047 22.9951 28.0101C20.8163 29.3155 18.3344 30.0292 15.7951 30.0806C13.2557 30.1319 10.747 29.5192 8.51718 28.3031C6.28739 27.087 4.41389 25.3096 3.08213 23.1468C1.75037 20.9841 1.00655 18.5111 0.924284 15.9725L0.916992 15.5L0.924284 15.0275C1.00596 12.509 1.73883 10.0546 3.05147 7.90358C4.3641 5.75258 6.2117 3.97841 8.41413 2.75404C10.6166 1.52967 13.0987 0.896875 15.6185 0.917352C18.1383 0.937828 20.6097 1.61088 22.792 2.87088ZM20.9064 11.5523C20.6553 11.3012 20.3211 11.1504 19.9667 11.1281C19.6123 11.1058 19.262 11.2136 18.9814 11.4313L18.8443 11.5523L14.042 16.3532L12.1564 14.469L12.0193 14.348C11.7387 14.1305 11.3884 14.0228 11.034 14.0451C10.6797 14.0675 10.3457 14.2183 10.0947 14.4694C9.84362 14.7204 9.69278 15.0544 9.67042 15.4088C9.64807 15.7631 9.75574 16.1134 9.97324 16.394L10.0943 16.5311L13.011 19.4478L13.148 19.5688C13.4038 19.7672 13.7183 19.8749 14.042 19.8749C14.3657 19.8749 14.6802 19.7672 14.9359 19.5688L15.073 19.4478L20.9064 13.6144L21.0274 13.4773C21.2451 13.1967 21.3529 12.8464 21.3306 12.492C21.3083 12.1376 21.1575 11.8035 20.9064 11.5523Z" fill="#0071D3"/>
</svg>
